<svg xmlns="http://www.w3.org/2000/svg" width="800" height="600" viewBox="0 0 800 600">
  <defs>
    <linearGradient id="bg" x1="0" y1="0" x2="1" y2="1"><stop offset="0%" stop-color="#0f172a"/><stop offset="100%" stop-color="#1e293b"/></linearGradient>
    <linearGradient id="acc" x1="0" y1="0" x2="1" y2="0"><stop offset="0%" stop-color="#7c3aed" stop-opacity="0.6"/><stop offset="100%" stop-color="#7c3aed" stop-opacity="0.2"/></linearGradient>
  </defs>
  <rect width="800" height="600" fill="url(#bg)"/>
  <rect x="0" y="0" width="800" height="3" fill="#7c3aed" opacity="0.5"/>
  <rect x="0" y="597" width="800" height="3" fill="#7c3aed" opacity="0.3"/>
  <line x1="30" y1="30" x2="80" y2="30" stroke="#7c3aed" stroke-width="2" opacity="0.4"/>
  <line x1="30" y1="30" x2="30" y2="80" stroke="#7c3aed" stroke-width="2" opacity="0.4"/>
  <line x1="720" y1="30" x2="770" y2="30" stroke="#7c3aed" stroke-width="2" opacity="0.4"/>
  <line x1="770" y1="30" x2="770" y2="80" stroke="#7c3aed" stroke-width="2" opacity="0.4"/>
  <line x1="30" y1="570" x2="80" y2="570" stroke="#7c3aed" stroke-width="2" opacity="0.4"/>
  <line x1="30" y1="520" x2="30" y2="570" stroke="#7c3aed" stroke-width="2" opacity="0.4"/>
  <line x1="720" y1="570" x2="770" y2="570" stroke="#7c3aed" stroke-width="2" opacity="0.4"/>
  <line x1="770" y1="520" x2="770" y2="570" stroke="#7c3aed" stroke-width="2" opacity="0.4"/>
  <rect x="200" y="180" width="400" height="200" rx="16" fill="url(#acc)" opacity="0.15"/>
  <rect x="200" y="180" width="400" height="200" rx="16" stroke="#7c3aed" stroke-width="1" fill="none" opacity="0.3"/>
  <text x="400" y="270" text-anchor="middle" font-family="Arial,sans-serif" font-weight="900" font-size="28" fill="white" letter-spacing="3">VERIN 15T</text>
  <text x="400" y="310" text-anchor="middle" font-family="monospace" font-size="14" fill="#7c3aed" opacity="0.7">REF: GSE-JACK-15T</text>
  <text x="400" y="350" text-anchor="middle" font-family="Arial,sans-serif" font-weight="700" font-size="11" fill="white" opacity="0.3" letter-spacing="4">GSE</text>
  <text x="400" y="540" text-anchor="middle" font-family="Arial,sans-serif" font-weight="700" font-size="10" fill="white" opacity="0.15" letter-spacing="6">LLEDO AEROTOOLS</text>
</svg>