<svg xmlns="http://www.w3.org/2000/svg" width="800" height="500" viewBox="0 0 800 500">
  <defs>
    <linearGradient id="sky-nh90" x1="0" y1="0" x2="0" y2="1">
      <stop offset="0%" stop-color="#030712"/>
      <stop offset="40%" stop-color="#0f172a"/>
      <stop offset="100%" stop-color="#1e293b"/>
    </linearGradient>
    <linearGradient id="glow-nh90" x1="0.3" y1="0" x2="0.7" y2="1">
      <stop offset="0%" stop-color="#4b5563" stop-opacity="0.15"/>
      <stop offset="100%" stop-color="#4b5563" stop-opacity="0"/>
    </linearGradient>
    <radialGradient id="spot-nh90" cx="0.5" cy="0.6" r="0.5">
      <stop offset="0%" stop-color="#4b5563" stop-opacity="0.12"/>
      <stop offset="100%" stop-color="#4b5563" stop-opacity="0"/>
    </radialGradient>
    <filter id="shadow-nh90">
      <feDropShadow dx="0" dy="4" stdDeviation="8" flood-color="#4b5563" flood-opacity="0.3"/>
    </filter>
  </defs>

  <!-- Background -->
  <rect width="800" height="500" fill="url(#sky-nh90)"/>
  <rect width="800" height="500" fill="url(#glow-nh90)"/>
  <ellipse cx="400" cy="320" rx="350" ry="180" fill="url(#spot-nh90)"/>

  <!-- Grid lines -->
  <line x1="0" y1="380" x2="800" y2="380" stroke="#4b5563" stroke-width="0.5" opacity="0.15"/>
  <line x1="0" y1="420" x2="800" y2="420" stroke="#4b5563" stroke-width="0.3" opacity="0.08"/>

  <!-- HUD corners -->
  <polyline points="30,30 30,70 70,70" fill="none" stroke="#9ca3af" stroke-width="1.5" opacity="0.4"/>
  <polyline points="770,30 770,70 730,70" fill="none" stroke="#9ca3af" stroke-width="1.5" opacity="0.4"/>
  <polyline points="30,470 30,430 70,430" fill="none" stroke="#9ca3af" stroke-width="1.5" opacity="0.4"/>
  <polyline points="770,470 770,430 730,430" fill="none" stroke="#9ca3af" stroke-width="1.5" opacity="0.4"/>

  <!-- Helicopter silhouette -->
  <g transform="translate(50,30) scale(1.05)" filter="url(#shadow-nh90)">
    <path d="M120,285 Q130,235 180,210 L280,198 Q310,196 340,198 L440,205 Q470,208 490,218 L550,248 Q572,260 575,272 L578,282 Q580,290 574,294 L530,300 Q508,302 486,300 L430,295 Q408,293 386,295 L340,300 Q318,302 296,300 L230,295 Q208,293 186,295 L155,298 Q135,300 130,294 Z M340,198 L354,158 Q360,145 368,152 L388,190 M490,218 L585,208 Q612,206 624,214 L656,235 Q665,242 658,249 L618,256 Q607,258 596,254 L550,244 M180,210 L154,204 Q140,202 136,208 L128,225" fill="#4b5563" opacity="0.85" stroke="#9ca3af" stroke-width="1.5"/>
    <!-- Rotor disc -->
    <ellipse cx="340" cy="195" rx="180" ry="8" fill="#9ca3af" opacity="0.15"/>
    <line x1="160" y1="195" x2="520" y2="195" stroke="#9ca3af" stroke-width="1" opacity="0.3"/>
    <!-- Windows -->
    <rect x="220" y="225" width="35" height="25" rx="5" fill="#9ca3af" opacity="0.2"/>
    <rect x="265" y="223" width="35" height="27" rx="5" fill="#9ca3af" opacity="0.2"/>
  </g>

  <!-- Ground reflection -->
  <g transform="translate(50,30) scale(1.05)" opacity="0.06">
    <g transform="translate(0,560) scale(1,-1)">
      <path d="M120,285 Q130,235 180,210 L280,198 Q310,196 340,198 L440,205 Q470,208 490,218 L550,248 Q572,260 575,272 L578,282 Q580,290 574,294 L530,300 Q508,302 486,300 L430,295 Q408,293 386,295 L340,300 Q318,302 296,300 L230,295 Q208,293 186,295 L155,298 Q135,300 130,294 Z M340,198 L354,158 Q360,145 368,152 L388,190 M490,218 L585,208 Q612,206 624,214 L656,235 Q665,242 658,249 L618,256 Q607,258 596,254 L550,244 M180,210 L154,204 Q140,202 136,208 L128,225" fill="#4b5563"/>
    </g>
  </g>

  <!-- Model name -->
  <text x="400" y="420" text-anchor="middle" font-family="Arial,Helvetica,sans-serif" font-weight="900" font-size="52" fill="white" letter-spacing="8" opacity="0.95">NH90</text>
  
  <!-- Manufacturer -->
  <text x="400" y="450" text-anchor="middle" font-family="Arial,Helvetica,sans-serif" font-weight="700" font-size="12" fill="#9ca3af" letter-spacing="5" opacity="0.6">NH INDUSTRIES</text>

  <!-- LLEDO AERO TOOLS branding top-right -->
  <rect x="590" y="35" width="170" height="28" rx="4" fill="white" opacity="0.9"/>
  <text x="675" y="54" text-anchor="middle" font-family="Arial,Helvetica,sans-serif" font-weight="900" font-size="11" fill="#4b5563" letter-spacing="2">LLEDO AERO TOOLS</text>

  <!-- Top-left model tag -->
  <rect x="40" y="35" width="80" height="24" rx="4" fill="#4b5563" opacity="0.8"/>
  <text x="80" y="51" text-anchor="middle" font-family="monospace" font-weight="700" font-size="10" fill="white" letter-spacing="1">NH90</text>

  <!-- Bottom bar -->
  <rect x="0" y="490" width="800" height="10" fill="#4b5563" opacity="0.6"/>
  <rect x="0" y="0" width="800" height="3" fill="#9ca3af" opacity="0.4"/>

  <!-- Technical data overlay -->
  <text x="50" y="478" font-family="monospace" font-size="9" fill="white" opacity="0.2" letter-spacing="2">COMPATIBLE EQUIPMENT — LLEDO AEROTOOLS GSE CATALOGUE</text>
</svg>