<svg xmlns="http://www.w3.org/2000/svg" viewBox="0 0 340 60" width="340" height="60">
  <defs>
    <linearGradient id="lledo-blue" x1="0%" y1="0%" x2="0%" y2="100%">
      <stop offset="0%" stop-color="#5BA3E8"/>
      <stop offset="30%" stop-color="#1E5FAA"/>
      <stop offset="50%" stop-color="#0D3A6E"/>
      <stop offset="70%" stop-color="#1E5FAA"/>
      <stop offset="100%" stop-color="#5BA3E8"/>
    </linearGradient>
    <linearGradient id="cyan-accent" x1="0%" y1="0%" x2="100%" y2="0%">
      <stop offset="0%" stop-color="#06B6D4"/>
      <stop offset="100%" stop-color="#67E8F9"/>
    </linearGradient>
    <linearGradient id="silver" x1="0%" y1="0%" x2="100%" y2="100%">
      <stop offset="0%" stop-color="#E2E8F0"/>
      <stop offset="50%" stop-color="#94A3B8"/>
      <stop offset="100%" stop-color="#E2E8F0"/>
    </linearGradient>
  </defs>
  
  <text x="8" y="32" font-family="Arial Black, Arial, sans-serif" font-weight="900" font-size="30" fill="url(#lledo-blue)" letter-spacing="1">LLEDO</text>
  <text x="8" y="32" font-family="Arial Black, Arial, sans-serif" font-weight="900" font-size="30" fill="none" stroke="url(#silver)" stroke-width="0.5" letter-spacing="1">LLEDO</text>
  
  <text x="10" y="48" font-family="Arial, sans-serif" font-weight="700" font-size="9" fill="#5BA3E8" letter-spacing="3.5">AERO DISTRIBUTION</text>
  
  <line x1="10" y1="36" x2="110" y2="36" stroke="url(#cyan-accent)" stroke-width="1.5" opacity="0.7"/>
  
  <g transform="translate(125, 8)">
    <ellipse cx="50" cy="4" rx="42" ry="2" fill="#5BA3E8" opacity="0.3"/>
    <line x1="8" y1="4" x2="92" y2="4" stroke="#5BA3E8" stroke-width="1.2" opacity="0.6"/>
    
    <line x1="50" y1="4" x2="50" y2="14" stroke="#94A3B8" stroke-width="1.8"/>
    
    <path d="M18,22 Q22,16 30,14 L48,12 Q58,11 68,13 L82,17 Q92,20 95,25 L97,29 Q98,33 95,35 L80,37 Q70,38 62,37 L44,36 Q34,35 26,36 L22,37 Q18,38 17,34 Z" 
          fill="url(#lledo-blue)" stroke="url(#silver)" stroke-width="0.8"/>
    
    <path d="M18,22 L5,24 Q2,25 2,28 L3,31 Q4,33 7,32 L18,30" 
          fill="url(#lledo-blue)" stroke="url(#silver)" stroke-width="0.6"/>
    
    <circle cx="2" cy="28" r="2.5" fill="none" stroke="#06B6D4" stroke-width="0.8"/>
    
    <rect x="32" y="20" width="11" height="8" rx="2" fill="#5BA3E8" opacity="0.4"/>
    <rect x="48" y="19" width="11" height="9" rx="2" fill="#5BA3E8" opacity="0.4"/>
    
    <path d="M28,35 Q30,38 33,39 L78,39 Q81,38 83,35" fill="none" stroke="#94A3B8" stroke-width="1.8"/>
    <line x1="35" y1="33" x2="33" y2="39" stroke="#94A3B8" stroke-width="1.2"/>
    <line x1="75" y1="33" x2="77" y2="39" stroke="#94A3B8" stroke-width="1.2"/>
    
    <path d="M30,15 Q40,13 50,13 L70,14" fill="none" stroke="#FFFFFF" stroke-width="1" opacity="0.25"/>
  </g>
</svg>
