<svg xmlns="http://www.w3.org/2000/svg" viewBox="0 0 320 50" width="320" height="50">
  <rect x="4" y="33" width="132" height="12" rx="3" fill="#0B1220" opacity="0.72"/>
  <text x="5" y="28" font-family="Arial Black, Arial, sans-serif" font-weight="900" font-size="26" fill="#4F8FEF" letter-spacing="1">LLEDO</text>
  <text x="6.5" y="28" font-family="Arial Black, Arial, sans-serif" font-weight="900" font-size="26" fill="#C62828" opacity="0.9" letter-spacing="1">LLEDO</text>
  <text x="5" y="42" font-family="Arial, sans-serif" font-weight="800" font-size="10.5" fill="#9FD0FF" letter-spacing="2.2">AERO DISTRIBUTION</text>
  <line x1="5" y1="32" x2="118" y2="32" stroke="#28C7D9" stroke-width="1.8" opacity="0.85"/>
  
  <g transform="translate(210, 6)">
    <ellipse cx="45" cy="3" rx="38" ry="2" fill="#6EA8FF" opacity="0.32"/>
    <line x1="7" y1="3" x2="83" y2="3" stroke="#6EA8FF" stroke-width="1" opacity="0.62"/>
    <line x1="45" y1="3" x2="45" y2="12" stroke="#94A3B8" stroke-width="1.5"/>
    
    <path d="M15,18 Q19,13 26,11 L42,10 Q51,9 60,11 L73,14 Q82,17 85,21 L87,25 Q88,28 85,30 L71,31 Q62,32 55,31 L39,30 Q30,29 23,30 L19,31 Q15,32 14,28 Z" 
          fill="#3B82F6" stroke="#B8C4D6" stroke-width="0.6"/>
    
    <path d="M15,18 L4,20 Q2,21 2,24 L3,26 Q4,28 6,27 L15,25" 
          fill="#D32F2F" stroke="#B8C4D6" stroke-width="0.5"/>
    
    <circle cx="2" cy="24" r="2" fill="none" stroke="#28C7D9" stroke-width="0.7"/>
    <rect x="28" y="16" width="10" height="7" rx="1.5" fill="#9FD0FF" opacity="0.52"/>
    <rect x="42" y="15" width="10" height="8" rx="1.5" fill="#9FD0FF" opacity="0.52"/>
    
    <path d="M25,29 Q27,32 30,33 L70,33 Q73,32 75,29" fill="none" stroke="#94A3B8" stroke-width="1.5"/>
    <line x1="31" y1="27" x2="30" y2="33" stroke="#94A3B8" stroke-width="1"/>
    <line x1="69" y1="27" x2="70" y2="33" stroke="#94A3B8" stroke-width="1"/>
  </g>
</svg>
