<svg xmlns="http://www.w3.org/2000/svg" viewBox="0 0 320 50" width="320" height="50">
  <text x="5" y="28" font-family="Arial Black, Arial, sans-serif" font-weight="900" font-size="26" fill="#2E7AD1" letter-spacing="1">LLEDO</text>
  <text x="5" y="42" font-family="Arial, sans-serif" font-weight="700" font-size="9" fill="#60A5FA" letter-spacing="3">AERO DISTRIBUTION</text>
  <line x1="5" y1="32" x2="100" y2="32" stroke="#06B6D4" stroke-width="1.5" opacity="0.6"/>
  
  <g transform="translate(210, 6)">
    <ellipse cx="45" cy="3" rx="38" ry="2" fill="#60A5FA" opacity="0.3"/>
    <line x1="7" y1="3" x2="83" y2="3" stroke="#60A5FA" stroke-width="1" opacity="0.5"/>
    <line x1="45" y1="3" x2="45" y2="12" stroke="#94A3B8" stroke-width="1.5"/>
    
    <path d="M15,18 Q19,13 26,11 L42,10 Q51,9 60,11 L73,14 Q82,17 85,21 L87,25 Q88,28 85,30 L71,31 Q62,32 55,31 L39,30 Q30,29 23,30 L19,31 Q15,32 14,28 Z" 
          fill="#2E7AD1" stroke="#94A3B8" stroke-width="0.6"/>
    
    <path d="M15,18 L4,20 Q2,21 2,24 L3,26 Q4,28 6,27 L15,25" 
          fill="#2E7AD1" stroke="#94A3B8" stroke-width="0.5"/>
    
    <circle cx="2" cy="24" r="2" fill="none" stroke="#06B6D4" stroke-width="0.6"/>
    <rect x="28" y="16" width="10" height="7" rx="1.5" fill="#60A5FA" opacity="0.4"/>
    <rect x="42" y="15" width="10" height="8" rx="1.5" fill="#60A5FA" opacity="0.4"/>
    
    <path d="M25,29 Q27,32 30,33 L70,33 Q73,32 75,29" fill="none" stroke="#94A3B8" stroke-width="1.5"/>
    <line x1="31" y1="27" x2="30" y2="33" stroke="#94A3B8" stroke-width="1"/>
    <line x1="69" y1="27" x2="70" y2="33" stroke="#94A3B8" stroke-width="1"/>
  </g>
</svg>
