<svg xmlns="http://www.w3.org/2000/svg" viewBox="0 0 420 150" width="420" height="150">
   <defs>
     <linearGradient id="metal-blue" x1="0%" y1="0%" x2="0%" y2="100%">
       <stop offset="0%" stop-color="#6CC0FF"/>
       <stop offset="20%" stop-color="#2D86F5"/>
       <stop offset="55%" stop-color="#134AAB"/>
       <stop offset="100%" stop-color="#0A2D6F"/>
     </linearGradient>
     <linearGradient id="metal-red" x1="0%" y1="0%" x2="0%" y2="100%">
       <stop offset="0%" stop-color="#FF7272"/>
       <stop offset="18%" stop-color="#FF3B3B"/>
       <stop offset="55%" stop-color="#C91515"/>
       <stop offset="100%" stop-color="#740909"/>
     </linearGradient>
     <linearGradient id="silver-edge" x1="0%" y1="0%" x2="100%" y2="100%">
       <stop offset="0%" stop-color="#FFFFFF"/>
       <stop offset="22%" stop-color="#DCE3EC"/>
       <stop offset="50%" stop-color="#8B98AA"/>
       <stop offset="74%" stop-color="#F9FBFD"/>
       <stop offset="100%" stop-color="#667487"/>
     </linearGradient>
     <linearGradient id="silver-fill" x1="0%" y1="0%" x2="0%" y2="100%">
       <stop offset="0%" stop-color="#F5F7FA"/>
       <stop offset="20%" stop-color="#BFC8D4"/>
       <stop offset="50%" stop-color="#677383"/>
       <stop offset="78%" stop-color="#E2E8EF"/>
       <stop offset="100%" stop-color="#4B5563"/>
     </linearGradient>
     <radialGradient id="hub-core" cx="50%" cy="50%" r="55%">
       <stop offset="0%" stop-color="#F8FBFD"/>
       <stop offset="28%" stop-color="#AEB9C7"/>
       <stop offset="68%" stop-color="#4E5A69"/>
       <stop offset="100%" stop-color="#232A33"/>
     </radialGradient>
   </defs>

   <g transform="translate(108,10)">
     <text x="0" y="40" font-family="Arial Black, Arial, sans-serif" font-weight="900" font-size="52" fill="#081A37" opacity="0.6">LLEDO</text>
     <text x="2" y="38" font-family="Arial Black, Arial, sans-serif" font-weight="900" font-size="52" fill="url(#metal-blue)">LLEDO</text>
     <text x="7" y="35" font-family="Arial Black, Arial, sans-serif" font-weight="900" font-size="52" fill="url(#metal-red)">LLEDO</text>
     <text x="7" y="35" font-family="Arial Black, Arial, sans-serif" font-weight="900" font-size="52" fill="none" stroke="url(#silver-edge)" stroke-width="1.8">LLEDO</text>
     <text x="10" y="62" font-family="Arial Black, Arial, sans-serif" font-weight="800" font-size="15" fill="#161C24" opacity="0.45" letter-spacing="2.4">AERO DISTRIBUTION</text>
     <text x="9" y="60" font-family="Arial Black, Arial, sans-serif" font-weight="800" font-size="15" fill="url(#silver-fill)" letter-spacing="2.4">AERO DISTRIBUTION</text>
   </g>

   <g transform="translate(31,72)">
     <path d="M34,16 C20,30 8,35 0,36 C10,39 23,44 38,52 C60,46 80,40 101,37 C76,31 53,24 34,16 Z" fill="url(#silver-fill)" stroke="url(#silver-edge)" stroke-width="1.5"/>
     <path d="M44,28 C26,35 14,39 8,40 C19,43 32,47 48,54 C67,49 82,45 97,42 C78,38 60,33 44,28 Z" fill="#3B4654" opacity="0.45"/>
     <path d="M44,6 C60,18 82,28 108,35 C89,28 73,14 62,0 Z" fill="url(#silver-fill)" stroke="url(#silver-edge)" stroke-width="1.2"/>

     <path d="M324,16 C338,30 350,35 358,36 C348,39 335,44 320,52 C298,46 278,40 257,37 C282,31 305,24 324,16 Z" fill="url(#silver-fill)" stroke="url(#silver-edge)" stroke-width="1.5"/>
     <path d="M314,28 C332,35 344,39 350,40 C339,43 326,47 310,54 C291,49 276,45 261,42 C280,38 298,33 314,28 Z" fill="#3B4654" opacity="0.45"/>
     <path d="M314,6 C298,18 276,28 250,35 C269,28 285,14 296,0 Z" fill="url(#silver-fill)" stroke="url(#silver-edge)" stroke-width="1.2"/>

     <circle cx="179" cy="47" r="46" fill="url(#silver-fill)" stroke="url(#silver-edge)" stroke-width="2"/>
     <circle cx="179" cy="47" r="34" fill="#2A313B" stroke="#A7B3C2" stroke-width="1.2"/>
     <circle cx="179" cy="47" r="20" fill="url(#hub-core)" stroke="url(#silver-edge)" stroke-width="1.5"/>
     <circle cx="179" cy="47" r="10" fill="#6C7786" opacity="0.45"/>

     <path d="M179,14 L184,31 L179,47 L174,31 Z" fill="url(#silver-fill)"/>
     <path d="M202,21 L193,35 L179,47 L188,29 Z" fill="url(#silver-fill)"/>
     <path d="M212,42 L196,43 L179,47 L196,52 Z" fill="url(#silver-fill)"/>
     <path d="M204,67 L191,56 L179,47 L187,66 Z" fill="url(#silver-fill)"/>
     <path d="M179,80 L174,63 L179,47 L184,63 Z" fill="url(#silver-fill)"/>
     <path d="M154,68 L167,56 L179,47 L171,66 Z" fill="url(#silver-fill)"/>
     <path d="M146,42 L162,43 L179,47 L162,52 Z" fill="url(#silver-fill)"/>
     <path d="M155,21 L165,35 L179,47 L170,29 Z" fill="url(#silver-fill)"/>
     <circle cx="179" cy="47" r="42" fill="none" stroke="#4A5564" stroke-width="1" opacity="0.35"/>
   </g>
 </svg>
