<svg xmlns="http://www.w3.org/2000/svg" viewBox="0 0 360 56" width="360" height="56">
   <defs>
     <linearGradient id="brand-blue" x1="0%" y1="0%" x2="0%" y2="100%">
       <stop offset="0%" stop-color="#5CA8FF"/>
       <stop offset="45%" stop-color="#1E5FAA"/>
       <stop offset="100%" stop-color="#0F2E68"/>
     </linearGradient>
     <linearGradient id="brand-red" x1="0%" y1="0%" x2="0%" y2="100%">
       <stop offset="0%" stop-color="#FF5A5A"/>
       <stop offset="45%" stop-color="#D92727"/>
       <stop offset="100%" stop-color="#8F1010"/>
     </linearGradient>
     <linearGradient id="metal" x1="0%" y1="0%" x2="100%" y2="100%">
       <stop offset="0%" stop-color="#F3F6FA"/>
       <stop offset="45%" stop-color="#93A4BA"/>
       <stop offset="100%" stop-color="#F3F6FA"/>
     </linearGradient>
   </defs>

   <g transform="translate(4,5)">
     <path d="M8,4 H82 C88,4 92,8 92,14 V15 H66 V12 H22 V33 H66 V30 H92 V32 C92,38 88,42 82,42 H8 C3,42 0,39 0,34 V12 C0,7 3,4 8,4 Z" fill="url(#brand-blue)" stroke="url(#metal)" stroke-width="1.2"/>
     <path d="M27,10 H66 C70,10 73,12 73,16 V18 H54 V16 H35 V30 H54 V27 H73 V31 C73,35 70,37 66,37 H27 C23,37 20,34 20,30 V16 C20,12 23,10 27,10 Z" fill="url(#brand-red)" stroke="url(#metal)" stroke-width="1"/>
     <path d="M88,4 H120 C125,4 128,7 128,12 V14 H111 V10 H104 V36 H111 V31 H128 V34 C128,39 125,42 120,42 H88 V31 H98 V14 H88 Z" fill="url(#brand-blue)" stroke="url(#metal)" stroke-width="1.2"/>
     <line x1="7" y1="6" x2="81" y2="6" stroke="#D9EEFF" stroke-width="0.9" opacity="0.55"/>
     <line x1="27" y1="12" x2="66" y2="12" stroke="#FFD6D6" stroke-width="0.8" opacity="0.5"/>
     <line x1="88" y1="6" x2="120" y2="6" stroke="#D9EEFF" stroke-width="0.9" opacity="0.55"/>
   </g>

   <g transform="translate(142,8)">
     <text x="0" y="20" font-family="Arial Black, Arial, sans-serif" font-weight="900" font-size="24" fill="#4F8FEF" letter-spacing="1">LLEDO</text>
     <text x="1.2" y="20" font-family="Arial Black, Arial, sans-serif" font-weight="900" font-size="24" fill="#D92727" opacity="0.85" letter-spacing="1">LLEDO</text>
     <rect x="0" y="24" width="156" height="12" rx="3" fill="#0B1220" opacity="0.78"/>
     <text x="2" y="33" font-family="Arial, sans-serif" font-weight="800" font-size="10.5" fill="#A9D4FF" letter-spacing="2">AERO DISTRIBUTION</text>
     <line x1="0" y1="24" x2="132" y2="24" stroke="#28C7D9" stroke-width="1.7" opacity="0.9"/>
   </g>
 </svg>
